<svg id="Capa_1" enable-background="new 0 0 508 508" height="512" viewBox="0 0 508 508" width="512" xmlns="http://www.w3.org/2000/svg"><g><path d="m266 332c0-5.522 4.478-10 10-10h182c5.522 0 10 4.478 10 10s-4.478 10-10 10h-182c-5.522 0-10-4.478-10-10zm140 48c0-5.522-4.478-10-10-10h-120c-5.522 0-10 4.478-10 10s4.478 10 10 10h120c5.522 0 10-4.478 10-10zm-140-96v-100c0-5.522 4.478-10 10-10h182c5.522 0 10 4.478 10 10v100c0 5.522-4.478 10-10 10h-182c-5.522 0-10-4.478-10-10zm20-10h162v-80h-162zm-226-170c0 5.523-4.477 10-10 10s-10-4.477-10-10 4.477-10 10-10 10 4.477 10 10zm45 0c0 5.523-4.477 10-10 10s-10-4.477-10-10 4.477-10 10-10 10 4.477 10 10zm45 0c0 5.523-4.477 10-10 10s-10-4.477-10-10 4.477-10 10-10 10 4.477 10 10zm-140 350c-5.523 0-10-4.477-10-10v-360c0-16.569 13.431-30 30-30h448c16.569 0 30 13.431 30 30v360c0 5.523-4.477 10-10 10h-86c-5.739 0-10.373-4.872-9.976-10.694.361-5.306 5.016-9.306 10.334-9.306h75.642v-280h-242v280h76 .01c4.25 0 8.138 2.649 9.454 6.691 2.246 6.9-2.881 13.309-9.464 13.309zm10-320h468v-50c0-5.514-4.486-10-10-10h-448c-5.514 0-10 4.486-10 10zm206 20h-206v280h206zm-183 50c0-5.522 4.478-10 10-10h66.72c4.128-11.639 15.243-20 28.28-20s24.152 8.361 28.28 20h19.72c5.522 0 10 4.478 10 10s-4.478 10-10 10h-19.72c-4.128 11.639-15.243 20-28.28 20s-24.152-8.361-28.28-20h-66.72c-5.522 0-10-4.478-10-10zm95 0c0 5.514 4.486 10 10 10s10-4.486 10-10-4.486-10-10-10-10 4.486-10 10zm68 160c0 5.522-4.478 10-10 10h-42.72c-4.128 11.639-15.243 20-28.28 20s-24.152-8.361-28.28-20h-43.72c-5.522 0-10-4.478-10-10s4.478-10 10-10h43.72c4.128-11.639 15.243-20 28.28-20s24.152 8.361 28.28 20h42.72c5.522 0 10 4.478 10 10zm-71 0c0-5.514-4.486-10-10-10s-10 4.486-10 10 4.486 10 10 10 10-4.486 10-10zm-92-80c0-16.542 13.458-30 30-30 13.036 0 24.152 8.361 28.28 20h94.72c5.522 0 10 4.478 10 10s-4.478 10-10 10h-94.72c-4.128 11.639-15.243 20-28.28 20-16.542 0-30-13.458-30-30zm20 0c0 5.514 4.486 10 10 10s10-4.486 10-10-4.486-10-10-10-10 4.486-10 10zm304 150c-5.51 0-10 4.49-10 10s4.49 10 10 10 10-4.49 10-10-4.49-10-10-10z"/></g></svg>